<?xml version="1.0" encoding="UTF-8" standalone="no"?>
<!DOCTYPE svg PUBLIC "-//W3C//DTD SVG 1.1//EN" "http://www.w3.org/Graphics/SVG/1.1/DTD/svg11.dtd">
<svg version="1.1" xmlns="http://www.w3.org/2000/svg" xmlns:xlink="http://www.w3.org/1999/xlink" preserveAspectRatio="xMidYMid meet" viewBox="3 4 293 292.99999999999994" width="288" height="288"><defs><path d="M167 114L185 78L149 78L113 78L131 114L149 150L167 114Z" id="a1XKOmcklL"></path><path d="M131 186L149 150L113 150L77 150L95 186L113 222L131 186Z" id="c1Mj7VS5b7"></path><path d="M203 186L221 150L185 150L149 150L167 186L185 222L203 186Z" id="a1792cOULP"></path><path d="M239 258L257 222L221 222L185 222L203 258L221 294L239 258Z" id="a8hZ6NJo"></path><path d="M167 258L185 222L149 222L113 222L131 258L149 294L167 258Z" id="a2kyWtTceY"></path><path d="M95 258L113 222L77 222L41 222L59 258L77 294L95 258Z" id="h6n0qub2T4"></path><path d="M167 42L185 78L149 78L113 78L131 42L149 6L167 42Z" id="a7ucGC7b"></path><path d="M131 114L149 150L113 150L77 150L95 114L113 78L131 114Z" id="a2wWYt02oe"></path><path d="M203 114L221 150L185 150L149 150L167 114L185 78L203 114Z" id="a5fAX4ZYO"></path><path d="M95 186L113 222L77 222L41 222L59 186L77 150L95 186Z" id="a5K7xc7HZ"></path><path d="M167 186L185 222L149 222L113 222L131 186L149 150L167 186Z" id="asxtz9yVl"></path><path d="M239 186L257 222L221 222L185 222L203 186L221 150L239 186Z" id="c1To68Cvj"></path><path d="M59 258L77 294L41 294L5 294L23 258L41 222L59 258Z" id="bejyn5CMP"></path><path d="M131 258L149 294L113 294L77 294L95 258L113 222L131 258Z" id="d2Hq1SJTc"></path><path d="M203 258L221 294L185 294L149 294L167 258L185 222L203 258Z" id="a8QIVkXS2N"></path><path d="M275 258L293 294L257 294L221 294L239 258L257 222L275 258Z" id="b3itwZua0G"></path></defs><g><g><use xlink:href="#a1XKOmcklL" opacity="1" fill="#ffffff" fill-opacity="1"></use><g><use xlink:href="#a1XKOmcklL" opacity="1" fill-opacity="0" stroke="#000000" stroke-width="2" stroke-opacity="1"></use></g></g><g><use xlink:href="#c1Mj7VS5b7" opacity="1" fill="#ffffff" fill-opacity="1"></use><g><use xlink:href="#c1Mj7VS5b7" opacity="1" fill-opacity="0" stroke="#000000" stroke-width="2" stroke-opacity="1"></use></g></g><g><use xlink:href="#a1792cOULP" opacity="1" fill="#ffffff" fill-opacity="1"></use><g><use xlink:href="#a1792cOULP" opacity="1" fill-opacity="0" stroke="#000000" stroke-width="2" stroke-opacity="1"></use></g></g><g><use xlink:href="#a8hZ6NJo" opacity="1" fill="#ffffff" fill-opacity="1"></use><g><use xlink:href="#a8hZ6NJo" opacity="1" fill-opacity="0" stroke="#000000" stroke-width="2" stroke-opacity="1"></use></g></g><g><use xlink:href="#a2kyWtTceY" opacity="1" fill="#ffffff" fill-opacity="1"></use><g><use xlink:href="#a2kyWtTceY" opacity="1" fill-opacity="0" stroke="#000000" stroke-width="2" stroke-opacity="1"></use></g></g><g><use xlink:href="#h6n0qub2T4" opacity="1" fill="#ffffff" fill-opacity="1"></use><g><use xlink:href="#h6n0qub2T4" opacity="1" fill-opacity="0" stroke="#000000" stroke-width="2" stroke-opacity="1"></use></g></g><g><use xlink:href="#a7ucGC7b" opacity="1" fill="#ffffff" fill-opacity="1"></use><g><use xlink:href="#a7ucGC7b" opacity="1" fill-opacity="0" stroke="#000000" stroke-width="4" stroke-opacity="1"></use></g></g><g><use xlink:href="#a2wWYt02oe" opacity="1" fill="#ffffff" fill-opacity="1"></use><g><use xlink:href="#a2wWYt02oe" opacity="1" fill-opacity="0" stroke="#000000" stroke-width="4" stroke-opacity="1"></use></g></g><g><use xlink:href="#a5fAX4ZYO" opacity="1" fill="#ffffff" fill-opacity="1"></use><g><use xlink:href="#a5fAX4ZYO" opacity="1" fill-opacity="0" stroke="#000000" stroke-width="4" stroke-opacity="1"></use></g></g><g><use xlink:href="#a5K7xc7HZ" opacity="1" fill="#ffffff" fill-opacity="1"></use><g><use xlink:href="#a5K7xc7HZ" opacity="1" fill-opacity="0" stroke="#000000" stroke-width="4" stroke-opacity="1"></use></g></g><g><use xlink:href="#asxtz9yVl" opacity="1" fill="#ffffff" fill-opacity="1"></use><g><use xlink:href="#asxtz9yVl" opacity="1" fill-opacity="0" stroke="#000000" stroke-width="4" stroke-opacity="1"></use></g></g><g><use xlink:href="#c1To68Cvj" opacity="1" fill="#ffffff" fill-opacity="1"></use><g><use xlink:href="#c1To68Cvj" opacity="1" fill-opacity="0" stroke="#000000" stroke-width="4" stroke-opacity="1"></use></g></g><g><use xlink:href="#bejyn5CMP" opacity="1" fill="#ffffff" fill-opacity="1"></use><g><use xlink:href="#bejyn5CMP" opacity="1" fill-opacity="0" stroke="#000000" stroke-width="4" stroke-opacity="1"></use></g></g><g><use xlink:href="#d2Hq1SJTc" opacity="1" fill="#ffffff" fill-opacity="1"></use><g><use xlink:href="#d2Hq1SJTc" opacity="1" fill-opacity="0" stroke="#000000" stroke-width="4" stroke-opacity="1"></use></g></g><g><use xlink:href="#a8QIVkXS2N" opacity="1" fill="#ffffff" fill-opacity="1"></use><g><use xlink:href="#a8QIVkXS2N" opacity="1" fill-opacity="0" stroke="#000000" stroke-width="4" stroke-opacity="1"></use></g></g><g><use xlink:href="#b3itwZua0G" opacity="1" fill="#ffffff" fill-opacity="1"></use><g><use xlink:href="#b3itwZua0G" opacity="1" fill-opacity="0" stroke="#000000" stroke-width="4" stroke-opacity="1"></use></g></g></g></svg>